HIERARCHY
ROOT joint_0
{
	OFFSET 0.000000 0.000000 0.000000
	CHANNELS 6 Xposition Yposition Zposition Zrotation Yrotation Xrotation 
	JOINT joint_1
	{
		OFFSET 1.363060 -1.794630 0.839290
		CHANNELS 3 Zrotation Yrotation Xrotation
		JOINT joint_2
		{
			OFFSET 2.448110 -6.726130 0.000000
			CHANNELS 3 Zrotation Yrotation Xrotation
			JOINT joint_3
			{
				OFFSET 2.562200 -7.039590 0.000000
				CHANNELS 3 Zrotation Yrotation Xrotation
				JOINT joint_4
				{
					OFFSET 0.157640 -0.433110 2.322550
					CHANNELS 3 Zrotation Yrotation Xrotation
					End Site
					{
						OFFSET 0.000000 0.000000 0.000000
					}
				}
			}
		}
	}
	JOINT joint_5
	{
		OFFSET -1.305520 -1.794630 0.839290
		CHANNELS 3 Zrotation Yrotation Xrotation
		JOINT joint_6
		{
			OFFSET -2.542530 -6.985550 0.000000
			CHANNELS 3 Zrotation Yrotation Xrotation
			JOINT joint_7
			{
				OFFSET -2.568260 -7.056230 0.000000
				CHANNELS 3 Zrotation Yrotation Xrotation
				JOINT joint_8
				{
					OFFSET -0.164730 -0.452590 2.363150
					CHANNELS 3 Zrotation Yrotation Xrotation
					End Site
					{
						OFFSET 0.000000 0.000000 0.000000
					}
				}
			}
		}
	}
	JOINT joint_9
	{
		OFFSET 0.028270 2.035590 -0.193380
		CHANNELS 3 Zrotation Yrotation Xrotation
		JOINT joint_10
		{
			OFFSET 0.056720 2.048850 -0.042750
			CHANNELS 3 Zrotation Yrotation Xrotation
			JOINT joint_11
			{
				OFFSET -0.054170 1.746240 0.172020
				CHANNELS 3 Zrotation Yrotation Xrotation
				JOINT joint_12
				{
					OFFSET 0.104070 1.761360 -0.123970
					CHANNELS 3 Zrotation Yrotation Xrotation
					End Site
					{
						OFFSET 0.000000 0.000000 0.000000
					}
				}
			}
			JOINT joint_13
			{
				OFFSET 3.362410 1.200890 -0.311210
				CHANNELS 3 Zrotation Yrotation Xrotation
				JOINT joint_14
				{
					OFFSET 4.983000 -0.000000 -0.000000
					CHANNELS 3 Zrotation Yrotation Xrotation
					JOINT joint_15
					{
						OFFSET 3.483560 -0.000000 -0.000000
						CHANNELS 3 Zrotation Yrotation Xrotation
						JOINT joint_16
						{
							OFFSET 0.000000 0.000000 0.000000
							CHANNELS 3 Zrotation Yrotation Xrotation
							End Site
							{
								OFFSET 0.000000 0.000000 0.000000
							}
						}
					}
				}
			}
			JOINT joint_17
			{
				OFFSET -3.136600 1.374050 -0.404650
				CHANNELS 3 Zrotation Yrotation Xrotation
				JOINT joint_18
				{
					OFFSET -5.241900 -0.000000 -0.000000
					CHANNELS 3 Zrotation Yrotation Xrotation
					JOINT joint_19
					{
						OFFSET -3.444170 -0.000000 -0.000000
						CHANNELS 3 Zrotation Yrotation Xrotation
						JOINT joint_20
						{
							OFFSET 0.000000 0.000000 0.000000
							CHANNELS 3 Zrotation Yrotation Xrotation
							End Site
							{
								OFFSET 0.000000 0.000000 0.000000
							}
						}
					}
				}
			}
		}
	}
}
MOTION
Frames: 10
Frame Time: 0.031667
0.383414 16.863363 -1.810240 -1.405944 0.763194 0.967095 -17.891518 2.636731 -3.332856 -1.147760 2.923688 8.677446 -0.150412 1.682801 -0.330192 0.261542 -1.016067 -2.762910 23.758652 -0.908078 -0.311342 -0.068882 -3.803136 9.382675 0.205097 -2.432237 -6.177938 -0.032591 0.180488 -0.242382 1.069143 0.249974 -8.939221 0.594139 -0.390219 4.575464 2.547906 -1.251168 17.415063 2.141833 -0.605019 9.431249 -21.156166 -5.663911 3.383307 19.350269 -21.699152 -11.643899 2.275686 -1.833075 0.487965 -7.149828 -0.118907 0.116000 19.012464 3.388301 0.483784 -28.426216 28.563115 -21.864462 0.571092 -0.601558 2.277532 7.176322 -0.124817 0.128125 
0.383318 16.859610 -1.817252 -1.379972 0.747692 0.969901 -18.036012 3.887592 -1.697348 -1.071883 1.640575 5.882156 -0.151865 0.678553 -0.361596 0.109452 -0.807436 -1.995174 24.856667 -2.824745 1.924761 -0.015926 -2.663489 6.631467 0.333331 -0.858147 -6.132597 0.203734 0.320992 -0.673462 1.154111 0.036161 -10.153360 0.932387 -0.252809 6.027910 1.769242 -1.066578 18.698008 2.246653 -0.664613 9.549526 -20.686552 -3.144201 4.612188 18.751679 -20.371921 -12.266343 2.755837 -2.023420 -0.176015 -7.126352 -0.157970 0.149985 17.151381 1.889048 1.367244 -30.358799 28.537723 -24.855065 0.678133 -0.895122 1.266680 7.218739 -0.153085 0.158087 
0.359751 16.856756 -1.922252 -1.278687 2.231196 1.264987 -18.471518 4.672353 -1.211772 -0.696594 0.943814 4.078552 0.173292 0.010756 -0.625807 0.046801 -0.809278 -1.807003 25.897503 -3.860665 2.792381 -0.442340 -2.052352 4.768014 0.107719 0.284556 -6.165390 0.420355 0.356835 -0.797889 1.359607 0.067719 -10.802393 1.165257 -0.252750 7.701704 1.465293 -1.057745 19.832677 2.535082 -0.751792 9.635306 -18.334837 -3.506532 3.887431 18.793817 -19.489583 -12.834094 3.226438 -2.172172 -0.299834 -7.096175 -0.202451 0.189724 16.030888 2.591151 0.967390 -31.389660 27.961777 -26.635128 0.490499 -1.025015 0.793809 7.262435 -0.196259 0.198552 
0.356616 16.846096 -1.948889 -0.875224 1.924792 0.723241 -18.763531 4.492400 -0.828457 -0.615827 0.485907 2.928233 0.162270 0.050938 -0.957905 0.098082 -0.904778 -1.792446 26.775168 -4.184417 3.182372 -0.697275 -1.653572 3.765081 0.248194 0.443913 -6.228318 0.577189 0.216462 -0.448365 1.424632 0.215318 -11.363249 1.220250 -0.172520 8.984194 1.173304 -1.060082 20.585693 2.844669 -0.797638 9.473135 -17.519766 -2.732555 3.926967 19.094201 -18.404898 -13.597777 3.731524 -2.328117 0.319789 -7.050420 -0.262217 0.246377 15.533464 2.115441 0.758317 -31.626616 26.696593 -27.870198 0.644079 -1.207315 1.087944 7.326608 -0.262191 0.260409 
0.352688 16.855104 -1.909324 -1.206381 1.764283 0.913657 -19.020844 4.051578 -1.000883 -0.382682 0.222756 2.373427 0.232980 0.195662 -0.889957 0.172610 -1.061358 -1.938517 27.586328 -4.583465 3.038962 -0.962305 -1.657203 3.337131 0.312381 0.068610 -6.097021 0.657214 -0.009304 0.119644 1.419688 0.496951 -11.821212 1.391136 -0.228431 9.999386 0.974436 -0.856515 20.880351 3.187457 -0.789547 9.104818 -17.192692 -2.366110 4.188293 19.268946 -17.355673 -14.194016 4.287045 -2.625313 0.563017 -7.001473 -0.329564 0.307523 15.545544 1.475639 0.939450 -31.719276 25.004622 -28.894720 0.760012 -1.462015 1.299467 7.390218 -0.327539 0.324328 
0.353326 16.855556 -1.907733 -1.240121 1.724975 0.923689 -19.137265 3.503953 -1.082037 0.035834 0.151048 1.940731 0.228271 0.457335 -1.128826 0.180402 -1.119978 -1.969071 28.250097 -4.558489 2.920416 -1.188377 -1.636766 3.010127 0.286869 -0.004597 -6.274388 0.693541 -0.146061 0.477967 1.428471 0.677307 -12.138737 1.593777 -0.142066 10.950100 0.728556 -0.807228 21.196002 3.531460 -0.783649 8.705961 -17.048191 -2.259403 4.261332 19.534078 -16.237311 -14.947334 4.762865 -2.800354 0.849590 -6.981806 -0.369527 0.339897 15.800773 1.057402 1.125655 -31.559443 23.471705 -29.366809 0.750548 -1.635364 1.724931 7.419928 -0.357105 0.355498 
0.353497 16.856457 -1.906577 -1.280150 1.729442 0.936999 -19.563335 3.551642 -0.969306 0.254368 -0.128705 1.677943 0.252633 -0.008776 -1.358054 0.169876 -0.991268 -1.396778 29.130799 -4.812874 3.322464 -1.096928 -1.658300 2.876219 0.333245 0.192620 -6.422619 0.805020 -0.228001 0.613200 1.431351 0.956498 -12.451122 1.613201 -0.019204 11.851247 0.509539 -0.721853 21.798823 3.810643 -0.754283 8.694708 -17.078550 -2.296503 4.466024 19.677869 -15.140510 -15.423580 5.435850 -2.972866 1.143687 -6.933185 -0.431127 0.394791 16.108524 0.977811 1.323028 -31.358273 22.205142 -29.500088 0.771502 -1.898851 1.950651 7.469342 -0.420653 0.415123 
0.354524 16.854355 -1.908769 -1.262170 1.675628 0.897137 -19.212688 2.939554 -1.290322 0.420269 -0.215934 1.913740 0.134316 -0.039185 -1.397907 0.177947 -0.965975 -1.328892 28.942633 -4.704701 2.933743 -1.275282 -1.760978 2.938388 0.422706 -0.065474 -6.526528 0.873371 -0.188059 0.470059 1.525116 1.052028 -12.048710 1.725010 0.261588 11.971258 0.264707 -0.738096 21.649190 4.127500 -0.770668 8.224897 -17.398911 -2.125634 4.750130 19.975213 -14.982830 -15.436356 5.671718 -3.114027 1.180863 -6.926455 -0.420351 0.382477 16.047861 0.636591 1.111988 -31.496028 21.818866 -29.043730 0.813352 -1.861882 1.943944 7.461785 -0.408647 0.400228 
0.355215 16.853754 -1.910480 -1.258266 1.650171 0.888190 -18.757938 2.360540 -1.474091 0.777961 -0.227635 2.222683 0.068449 0.010567 -1.250226 0.248442 -1.055581 -1.530790 28.502057 -4.470936 2.455806 -1.755629 -1.717639 2.775532 0.485439 -0.541780 -6.562812 0.865348 -0.221206 0.516368 1.568802 1.141739 -11.513288 2.034159 0.344456 12.113473 0.153758 -0.808467 21.094691 4.352590 -0.861286 7.638947 -18.034431 -1.786130 5.189146 20.514966 -15.042973 -15.667615 5.904715 -3.334490 0.943035 -6.919006 -0.407048 0.370296 15.949059 0.385326 0.886040 -32.043307 21.698198 -29.087597 0.922864 -1.786019 1.953774 7.459761 -0.391876 0.383067 
0.354847 16.854204 -1.912898 -1.277922 1.673580 0.855423 -18.469670 1.927129 -1.769577 1.144115 -0.237330 2.590775 0.046097 0.129093 -1.136613 0.304158 -1.132662 -1.646895 28.274599 -4.259371 1.915739 -2.114424 -1.559127 2.753663 0.670794 -0.816011 -6.512070 0.856112 -0.266634 0.594450 1.543209 1.250501 -11.082129 2.179188 0.405269 12.201142 0.119487 -0.872624 20.813714 4.480321 -0.932680 7.263376 -19.052317 -1.564581 5.788270 20.948711 -15.098623 -15.873973 6.108969 -3.488106 0.704688 -6.912212 -0.406038 0.368713 16.600272 0.531163 1.253598 -32.499180 21.731652 -29.254568 0.912460 -1.700238 1.778511 7.469730 -0.388860 0.379416 
